<svg xmlns="http://www.w3.org/2000/svg" version="1.1" width="826" height="822">
<path d="M0 0 C3.71415741 0.63348946 6.19130299 2.28657418 9.25 4.4375 C10.14203125 5.05496094 11.0340625 5.67242187 11.953125 6.30859375 C12.62859375 6.86675781 13.3040625 7.42492187 14 8 C14 8.66 14 9.32 14 10 C15.03253906 10.32291016 15.03253906 10.32291016 16.0859375 10.65234375 C19.8530998 12.39453007 22.54842817 14.81285694 25.625 17.5625 C26.76165466 18.56535266 27.89972352 19.56660429 29.0390625 20.56640625 C29.65765137 21.11103516 30.27624023 21.65566406 30.91357422 22.21679688 C33.26632224 24.22761732 35.68678425 26.14036038 38.109375 28.06640625 C44.41231217 33.20287322 50.14627211 38.8439065 55.87109375 44.61035156 C57.62281575 46.37280238 59.38499428 48.12428568 61.1484375 49.875 C67.8936025 56.61217485 74.06781552 63.53012287 80 71 C81.06347266 72.25434448 82.13411957 73.50267573 83.21484375 74.7421875 C83.67310547 75.27070313 84.13136719 75.79921875 84.60351562 76.34375 C85.51625136 77.39145837 86.43312669 78.43557088 87.35351562 79.4765625 C89.96018534 82.49835465 91.77039187 85.19172797 93 89 C93.66 89 94.32 89 95 89 C96.75607752 91.32009547 98.39039205 93.6431082 100 96.0625 C100.48549316 96.78187744 100.97098633 97.50125488 101.47119141 98.24243164 C102.48418564 99.74582286 103.49406164 101.25131938 104.50097656 102.75878906 C105.91590125 104.87426278 107.3425651 106.98122999 108.7734375 109.0859375 C112.737319 114.93972142 116.60269922 120.7883286 119.9296875 127.03515625 C121.02188876 129.04018266 122.20713019 130.95206353 123.4375 132.875 C129.45625081 142.42649585 134.27894423 152.54480957 138.98095703 162.78808594 C139.94345074 164.87725533 140.92191934 166.95826544 141.90234375 169.0390625 C158.24774358 204.232909 169.10115756 242.26337541 174 280.75 C174.12463623 281.72493408 174.24927246 282.69986816 174.37768555 283.7043457 C174.87406368 288.05831342 175.2420221 291.72708001 174 296 C171.6484375 297.265625 171.6484375 297.265625 168.375 298.25 C167.09749531 298.65820984 165.82155916 299.07134745 164.546875 299.48828125 C163.83080078 299.7198291 163.11472656 299.95137695 162.37695312 300.18994141 C157.73070034 301.77337061 153.18628771 303.62674694 148.625 305.4375 C141.36457686 308.29939263 134.09343943 311.11901379 126.77685547 313.83398438 C122.66748948 315.36275697 118.58154944 316.94346522 114.50219727 318.55053711 C107.30224611 321.38603007 100.0692082 324.05000839 92.75 326.5625 C87.21780773 328.46561176 81.79024376 330.43942804 76.4375 332.8125 C69.69018401 335.79980047 62.80254057 338.33700365 55.875 340.875 C47.6411086 343.89190776 39.44154564 346.96024429 31.3125 350.25 C20.87204883 354.47275029 10.41140782 358.60717155 -0.3125 362.0625 C-5.0523133 363.60850622 -9.47161534 365.54050763 -13.98046875 367.65625 C-18.11258441 369.49512165 -22.33501983 371.06027858 -26.58032227 372.61303711 C-30.36684732 374.00096773 -34.12004171 375.44221343 -37.8515625 376.97265625 C-38.65779053 377.29959473 -39.46401855 377.6265332 -40.29467773 377.96337891 C-41.85830029 378.59993171 -43.41795297 379.24634872 -44.97290039 379.90380859 C-51.79272205 382.65697591 -51.79272205 382.65697591 -56 381 C-58.39453125 379.51171875 -58.39453125 379.51171875 -60.8125 377.6875 C-76.01052047 366.77780987 -96.57147943 361.40659658 -115.20849609 364.34863281 C-119.88391318 365.30774726 -124.43265595 366.62319217 -129 368 C-129.83917969 368.21527344 -130.67835938 368.43054688 -131.54296875 368.65234375 C-139.43562003 370.85193509 -146.82994744 375.77343084 -153.26171875 380.75 C-155 382 -155 382 -157 382 C-157.268125 382.598125 -157.53625 383.19625 -157.8125 383.8125 C-159.02923286 386.05385 -160.03641059 387.38644775 -162 389 C-165.08427511 389.12561091 -167.91675374 389.06319593 -170.98046875 388.83984375 C-172.36530708 388.75572487 -172.36530708 388.75572487 -173.77812195 388.66990662 C-184.76332678 387.96263728 -195.72580502 386.93114363 -206.68463135 385.90231323 C-224.19892066 384.26179428 -241.69343584 382.70892725 -259.25805664 381.73632812 C-270.61122773 381.08359751 -281.92453781 380.07952803 -293.25 379.0625 C-311.94177846 377.38402596 -330.64022909 375.99573511 -349.36752319 374.77989197 C-352.55928691 374.57138642 -355.75068546 374.35791775 -358.9418335 374.14019775 C-360.80431552 374.01332959 -362.66703787 373.89000179 -364.52978516 373.76708984 C-365.50608887 373.69312988 -366.48239258 373.61916992 -367.48828125 373.54296875 C-368.28403564 373.48520264 -369.07979004 373.42743652 -369.8996582 373.36791992 C-372.26705351 372.95321985 -373.9500468 372.24796559 -376 371 C-377.52734375 368.79296875 -377.52734375 368.79296875 -378.9375 366.1875 C-381.25566699 362.15238638 -383.47980001 359.10112856 -387 356 C-387.55042969 355.45859375 -388.10085938 354.9171875 -388.66796875 354.359375 C-399.84115016 343.76213077 -414.1810843 339.41380675 -429.36108398 339.5144043 C-445.45922373 340.12427716 -458.27902125 346.57811359 -469.9375 357.5 C-482.71042694 371.31368395 -485.86045314 387.40088757 -485.18798828 405.58447266 C-484.78379782 410.77805764 -483.15169368 415.30201137 -481 420 C-480.54947266 421.08087891 -480.54947266 421.08087891 -480.08984375 422.18359375 C-474.52353575 434.5451349 -463.80442809 445.67416695 -451.18164062 450.72802734 C-433.13941046 457.41016725 -418.61268847 457.22405288 -400.80859375 449.46875 C-396.07307219 446.99231592 -391.78340153 443.78340153 -388 440 C-386.51237484 440.01764361 -385.02564008 440.11179583 -383.54296875 440.234375 C-382.55723877 440.31212158 -381.57150879 440.38986816 -380.5559082 440.4699707 C-378.88854614 440.60858521 -378.88854614 440.60858521 -377.1875 440.75 C-374.6850252 440.94825438 -372.18241045 441.14474701 -369.6796875 441.33984375 C-368.99717422 441.39331467 -368.31466095 441.44678558 -367.61146545 441.50187683 C-362.20445778 441.92033935 -356.79492271 442.28333474 -351.3828125 442.62890625 C-329.10579859 444.06106264 -306.88438134 445.85617276 -284.65478516 447.89855957 C-269.81498189 449.25892476 -255.00161096 450.47130177 -240.12060547 451.25756836 C-221.04368386 452.31105518 -202.02132479 454.23111335 -183 456 C-182.67 457.65 -182.34 459.3 -182 461 C-183.32451172 461.8353125 -183.32451172 461.8353125 -184.67578125 462.6875 C-191.33622585 466.91315408 -197.83895604 471.25575364 -204.19140625 475.9375 C-207.43968299 478.32288264 -210.7076761 480.67589884 -214 483 C-215.0725 483.763125 -216.145 484.52625 -217.25 485.3125 C-220 487 -220 487 -223 487 C-223 487.66 -223 488.32 -223 489 C-225.26121896 490.64918237 -227.52111556 492.18101396 -229.875 493.6875 C-231.26882531 494.59674305 -232.66205456 495.50690047 -234.0546875 496.41796875 C-234.7362793 496.86188965 -235.41787109 497.30581055 -236.12011719 497.76318359 C-238.44797942 499.29473555 -240.72820572 500.88664101 -243 502.5 C-247.09356444 505.39478351 -251.2561709 508.17217545 -255.4375 510.9375 C-260.91032601 514.56049165 -266.25227587 518.31949045 -271.5390625 522.2109375 C-275.27992571 524.93048567 -279.13550382 527.46080904 -283 530 C-290.57628033 535.01361829 -298.12794935 540.04813224 -305.546875 545.29296875 C-308.31526097 547.21937746 -311.1229791 549.07919454 -313.9375 550.9375 C-317.86187475 553.53871391 -321.70684151 556.2110734 -325.5 559 C-330.20755275 562.45984894 -335.02354037 565.71515391 -339.8984375 568.93359375 C-343.1266275 571.08436518 -346.31577434 573.28472129 -349.5 575.5 C-353.70037153 578.42068845 -357.92402109 581.29723806 -362.1875 584.125 C-366.6344828 587.07607366 -371.02633372 590.09237978 -375.390625 593.1640625 C-383.69792733 599.00902072 -392.07383636 604.72838411 -400.54467773 610.33251953 C-405.26138907 613.4688485 -409.83330607 616.77266232 -414.390625 620.13671875 C-417.92099708 622.6576581 -421.58929953 624.93016906 -425.265625 627.23046875 C-428.00375867 629.0024324 -430.62627776 630.87575829 -433.25 632.8125 C-437.48728781 635.93787541 -441.79762354 638.90866411 -446.1875 641.8125 C-451.59582237 645.39028122 -456.9704636 649.01137537 -462.3125 652.6875 C-462.98345703 653.14793701 -463.65441406 653.60837402 -464.34570312 654.08276367 C-468.91798263 657.22874976 -473.43023658 660.44909217 -477.88671875 663.7578125 C-480.47460701 665.27897417 -481.96999961 665.97762186 -485 666 C-487.45025892 664.48446948 -489.44926616 663.03179084 -491.625 661.1875 C-492.23746582 660.68702148 -492.84993164 660.18654297 -493.48095703 659.67089844 C-498.3043079 655.69135187 -502.9561913 651.53094708 -507.5390625 647.27734375 C-509.73959446 645.24097846 -511.97728703 643.26738147 -514.25 641.3125 C-518.01200552 638.0428633 -521.51276137 634.55776705 -525 631 C-527.58144649 628.40566776 -530.17621416 625.8282158 -532.796875 623.2734375 C-538.4630939 617.73112247 -543.76175492 612.09811947 -548.69140625 605.875 C-550.41463384 603.72898391 -552.16058671 601.63834703 -553.96484375 599.5625 C-554.46878662 598.98040771 -554.97272949 598.39831543 -555.49194336 597.79858398 C-556.47582091 596.66593816 -557.46470554 595.53761677 -558.45922852 594.41430664 C-560.78556258 591.72116472 -562.58262532 589.6085519 -563 586 C-563.66 586 -564.32 586 -565 586 C-566.79629475 583.61703659 -568.4740983 581.23123522 -570.125 578.75 C-570.61782471 578.01998779 -571.11064941 577.28997559 -571.6184082 576.5378418 C-572.61831033 575.05447765 -573.61515243 573.56904611 -574.60888672 572.08154297 C-575.80602621 570.29024579 -577.01336685 568.50577366 -578.22265625 566.72265625 C-597.62798128 537.98117086 -614.78211813 506.2514122 -625 473 C-625.38671875 471.783125 -625.7734375 470.56625 -626.171875 469.3125 C-627.25493162 465.90196991 -628.31361986 462.48441846 -629.36328125 459.06347656 C-629.97260332 457.08878708 -630.59519538 455.11866894 -631.21875 453.1484375 C-637.31048329 433.58832002 -641.14413902 413.64790528 -643.875 393.375 C-643.98440918 392.58501617 -644.09381836 391.79503235 -644.20654297 390.98110962 C-645.71832726 379.92963852 -646.27111096 369.15098885 -646 358 C-641.95005018 356.20829846 -638.04711507 354.60609424 -633.76171875 353.45703125 C-632.79008789 353.19204834 -631.81845703 352.92706543 -630.81738281 352.65405273 C-629.26809082 352.23748413 -629.26809082 352.23748413 -627.6875 351.8125 C-618.65816859 349.33776966 -609.68856327 346.72225499 -600.75 343.9375 C-589.54624976 340.45164715 -578.29534058 337.17466784 -567 334 C-559.12922012 331.77859078 -551.28773518 329.48958026 -543.4765625 327.06640625 C-534.26870298 324.24197294 -525.01555723 321.56566139 -515.75 318.9375 C-510.18182767 317.35665107 -504.65205627 315.67336504 -499.1328125 313.9296875 C-496.93934099 313.27875705 -494.72692981 312.6899114 -492.50390625 312.1484375 C-486.86683928 310.7639182 -481.33129968 309.03238956 -475.77853394 307.34667969 C-466.35338859 304.48620374 -456.92120599 301.66119057 -447.4375 299 C-437.67806102 296.25677468 -428.01321665 293.22036201 -418.34057617 290.18896484 C-410.88865684 287.86418467 -403.43310407 285.69374682 -395.87109375 283.76171875 C-392.58964556 282.89113045 -389.41244555 281.81911376 -386.20703125 280.70703125 C-383.66063895 279.89128434 -381.09872977 279.25446228 -378.5 278.625 C-367.91636802 276.04297034 -357.49624668 272.89076907 -347.1875 269.375 C-341.89671735 267.58358884 -336.62881541 266.09837511 -331.19921875 264.80078125 C-321.26709805 262.31471929 -311.49984369 259.17527367 -301.75 256.0625 C-294.73326587 253.83000217 -287.69478243 251.68364102 -280.625 249.625 C-279.7390918 249.36211182 -278.85318359 249.09922363 -277.94042969 248.82836914 C-268.0008416 245.96886453 -268.0008416 245.96886453 -264.21875 247.91796875 C-263.36796875 248.54638672 -263.36796875 248.54638672 -262.5 249.1875 C-250.96105603 256.88012931 -237.9690758 259.39460071 -224.375 259.375 C-223.21943604 259.37338867 -222.06387207 259.37177734 -220.87329102 259.37011719 C-212.26124396 259.24654276 -205.02473904 258.29161856 -197 255 C-195.77216797 254.53207031 -195.77216797 254.53207031 -194.51953125 254.0546875 C-192.27806866 253.136498 -190.14926327 252.11603946 -188 251 C-187.22527344 250.60425781 -186.45054687 250.20851563 -185.65234375 249.80078125 C-168.93413169 240.55409978 -155.30314376 223.98589372 -149 206 C-146.72494497 197.78604631 -145.88341736 190.47353419 -146.36083984 181.99511719 C-147.01925601 169.00699192 -147.01925601 169.00699192 -142.52880859 163.82470703 C-140.11282737 161.43607958 -137.56143853 159.23253787 -135 157 C-133.41752168 155.1593144 -131.8735399 153.28464376 -130.375 151.375 C-126.88297697 147.0439043 -123.24719487 142.89561245 -119.50390625 138.78125 C-108.06765778 126.07827198 -97.05190886 112.97509461 -86 99.9375 C-85.5551123 99.41333496 -85.11022461 98.88916992 -84.65185547 98.34912109 C-82.64699986 95.9793281 -80.69421678 93.59865952 -78.8125 91.12890625 C-77.9153125 90.07509766 -77.9153125 90.07509766 -77 89 C-76.34 89 -75.68 89 -75 89 C-74.59201172 88.11248047 -74.59201172 88.11248047 -74.17578125 87.20703125 C-73.02016446 85.03785023 -71.83440903 83.50118463 -70.1875 81.6875 C-66.67413032 77.75778505 -63.20145639 73.7965792 -59.75 69.8125 C-59.18772705 69.16385986 -58.6254541 68.51521973 -58.04614258 67.84692383 C-54.46511103 63.70969494 -50.90729935 59.55389624 -47.375 55.375 C-46.71624878 54.59697021 -46.71624878 54.59697021 -46.04418945 53.80322266 C-43.6600202 50.98250304 -41.29332108 48.14846102 -38.94140625 45.30078125 C-38.18754639 44.39416748 -38.18754639 44.39416748 -37.41845703 43.46923828 C-36.44968105 42.30370463 -35.48560448 41.13424474 -34.52685547 39.96044922 C-33.3948914 38.60268212 -32.20244798 37.29575964 -31 36 C-30.34 36 -29.68 36 -29 36 C-28.67 34.68 -28.34 33.36 -28 32 C-27.34 32 -26.68 32 -26 32 C-26 31.34 -26 30.68 -26 30 C-24.85200515 28.81366766 -23.6964653 27.63381627 -22.50634766 26.48974609 C-19.73421103 23.74816138 -17.23160798 20.76417565 -14.6875 17.8125 C-14.1200708 17.15628662 -13.5526416 16.50007324 -12.96801758 15.82397461 C-8.51413258 10.64982229 -4.19536863 5.38680262 0 0 Z " fill="#E21F2F" transform="translate(646,73)"/>
<path d="M0 0 C2.68847308 1.23845209 4.45015027 2.89966896 6.59765625 4.9375 C10.09857813 8.18250654 13.63800961 11.30790316 17.34765625 14.3125 C26.27411701 21.54881742 34.99308776 29.01900134 43.66015625 36.5625 C48.77939541 41.01742527 53.96615574 45.36677178 59.23828125 49.640625 C64.30808281 53.80409332 69.2627243 58.10276674 74.23242188 62.38476562 C86.4588103 72.91562023 98.69953793 83.42541968 111.2109375 93.6171875 C118.54426791 99.64208136 125.76582332 105.80048702 132.890625 112.0703125 C139.70787341 118.00591312 146.63052521 123.81796633 153.66015625 129.5 C158.35010007 133.31312824 162.80053859 137.34035204 167.24609375 141.43359375 C171.03187495 144.83231329 174.95651347 148.0299253 178.91796875 151.22265625 C181.03515625 152.9375 181.03515625 152.9375 182.03515625 153.9375 C182.12201228 155.49922745 182.14217844 157.06479344 182.1328125 158.62890625 C182.12958984 159.57314453 182.12636719 160.51738281 182.12304688 161.49023438 C182.11466797 162.48345703 182.10628906 163.47667969 182.09765625 164.5 C182.09314453 165.49708984 182.08863281 166.49417969 182.08398438 167.52148438 C182.07215632 169.99354849 182.05567474 172.46549518 182.03515625 174.9375 C177.2967116 176.75997871 172.62472354 178.41307256 167.72265625 179.75 C162.01688359 181.34712867 156.36682126 183.07282 150.72265625 184.875 C139.52115935 188.44130532 128.28757244 191.84884633 116.91015625 194.8125 C109.35813916 196.79520673 101.90652099 199.07474599 94.44384766 201.3684082 C89.23788205 202.96730359 84.02914459 204.53069963 78.78515625 206 C72.42743165 207.78448892 66.14397825 209.78046679 59.86816406 211.83227539 C55.33201677 213.29419152 50.82356135 214.45644217 46.1628418 215.44580078 C42.97881784 216.18161538 39.93153515 217.23776307 36.84765625 218.3125 C30.32743404 220.54172656 23.76178477 222.50532927 17.12255859 224.35449219 C12.81886335 225.55650672 8.52086675 226.77854984 4.22265625 228 C3.35108887 228.24548584 2.47952148 228.49097168 1.58154297 228.74389648 C-2.55456534 229.91861421 -6.65418052 231.14660098 -10.7265625 232.52734375 C-14.10929046 233.67403751 -17.48377594 234.62525084 -20.96484375 235.4375 C-25.28106341 236.4836903 -29.4585142 237.68827169 -33.63671875 239.19140625 C-35.51563612 239.79354252 -37.42691107 240.29414301 -39.34375 240.76171875 C-45.02122232 242.15446752 -50.59575435 243.89367139 -56.18795776 245.59136963 C-65.73830699 248.48960514 -75.29659965 251.3523949 -84.90234375 254.0625 C-93.01826967 256.35503175 -101.08692863 258.7838197 -109.14990234 261.25561523 C-119.18210861 264.32453909 -129.25151059 267.26131069 -139.33007812 270.17382812 C-141.7153303 270.86517994 -144.09830584 271.56371843 -146.48046875 272.265625 C-148.35992187 272.81476563 -148.35992187 272.81476563 -150.27734375 273.375 C-151.32535156 273.68308594 -152.37335938 273.99117188 -153.453125 274.30859375 C-155.96484375 274.9375 -155.96484375 274.9375 -158.96484375 274.9375 C-159.74369809 231.66240598 -140.41322932 182.61906052 -120.87890625 144.72167969 C-119.50357072 142.03713052 -118.17484991 139.3297781 -116.83984375 136.625 C-112.59834923 128.15350553 -108.09218807 119.90418016 -102.96484375 111.9375 C-102.3409375 110.94492188 -101.71703125 109.95234375 -101.07421875 108.9296875 C-96.77458042 102.1192825 -92.29530095 95.45649317 -87.65234375 88.875 C-87.14888428 88.16093994 -86.6454248 87.44687988 -86.12670898 86.71118164 C-83.50901514 83.02648591 -80.8169566 79.44605152 -77.96484375 75.9375 C-77.13562283 74.87295733 -76.30898062 73.80640297 -75.484375 72.73828125 C-70.59897245 66.43261982 -65.64732801 60.27877233 -60.23046875 54.4140625 C-58.98202597 53.0493854 -57.74147257 51.67678562 -56.53808594 50.2722168 C-51.6789387 44.60151944 -46.49293665 39.27942906 -41.21435547 34.00170898 C-39.72591138 32.51108385 -38.24567098 31.01262983 -36.765625 29.51367188 C-30.49370383 23.20514277 -23.95221573 17.4593213 -16.96484375 11.9375 C-15.84903268 11.02652741 -14.7352241 10.1130858 -13.625 9.1953125 C-12.76777344 8.49148437 -11.91054687 7.78765625 -11.02734375 7.0625 C-10.15207031 6.34320313 -9.27679688 5.62390625 -8.375 4.8828125 C-7.57964844 4.24085937 -6.78429687 3.59890625 -5.96484375 2.9375 C-5.28292969 2.33679688 -4.60101563 1.73609375 -3.8984375 1.1171875 C-1.96484375 -0.0625 -1.96484375 -0.0625 0 0 Z " fill="#E21F2F" transform="translate(161.96484375,83.0625)"/>
<path d="M0 0 C1.02158203 0.26748047 2.04316406 0.53496094 3.09570312 0.81054688 C4.15080078 1.08833984 5.20589844 1.36613281 6.29296875 1.65234375 C7.36740234 1.93400391 8.44183594 2.21566406 9.54882812 2.50585938 C12.19304927 3.19923292 14.83691332 3.89393723 17.48046875 4.58984375 C18.23548957 9.32872111 18.62216088 13.90561051 18.69140625 18.7019043 C18.71744479 20.14322287 18.74400442 21.58453209 18.77099609 23.02583313 C18.78426941 23.79534113 18.79754272 24.56484913 18.81121826 25.35767555 C19.13801231 43.31369877 19.93166208 61.23773589 20.85546875 79.171875 C20.92004272 80.43108639 20.9846167 81.69029778 21.05114746 82.98766708 C21.58854467 93.44280476 22.13745944 103.89733097 22.6887207 114.35174561 C23.16752169 123.43728971 23.641088 132.52308172 24.10546875 141.609375 C24.20134781 143.48349752 24.20134781 143.48349752 24.29916382 145.39548111 C25.43387134 167.78719037 26.13892115 190.17259805 26.48046875 212.58984375 C8.07685584 218.59017927 -10.35541014 223.64595434 -29.39599609 227.1940918 C-30.79281496 227.4544095 -32.18900111 227.71814957 -33.58447266 227.9855957 C-80.0016531 236.83721838 -133.15199378 236.55418276 -179.51953125 227.58984375 C-180.27355225 227.44464294 -181.02757324 227.29944214 -181.80444336 227.14984131 C-208.07669847 222.02477693 -233.68704046 214.81316861 -258.39941406 204.46533203 C-261.47925378 203.19353272 -264.58974926 202.01692367 -267.70703125 200.83984375 C-275.09896882 198.00626768 -282.06515346 195.22375601 -288.51953125 190.58984375 C-286.98799758 186.39230701 -284.28678655 184.76801395 -280.64453125 182.33984375 C-279.77658936 181.75505249 -279.77658936 181.75505249 -278.89111328 181.15844727 C-277.10679828 179.95926905 -275.31446768 178.77305074 -273.51953125 177.58984375 C-271.47755426 176.23614507 -269.43587133 174.88200268 -267.39453125 173.52734375 C-266.41613281 172.87894531 -265.43773437 172.23054687 -264.4296875 171.5625 C-260.57808567 168.95168265 -256.83657228 166.20217401 -253.0859375 163.44921875 C-249.30632335 160.71086817 -245.41951262 158.15235048 -241.51953125 155.58984375 C-233.11183071 150.02603151 -224.74760504 144.41748455 -216.51953125 138.58984375 C-210.23163941 134.14653607 -203.87997454 129.82011238 -197.46484375 125.5625 C-193.10122914 122.63991992 -188.80882041 119.620019 -184.51953125 116.58984375 C-179.29190799 112.89678087 -174.04038861 109.2540625 -168.70703125 105.71484375 C-163.49454144 102.25528516 -158.34481659 98.71381001 -153.20703125 95.14453125 C-146.40778025 90.42660653 -139.57346608 85.75952251 -132.734375 81.09960938 C-131.33240177 80.14394332 -129.93125384 79.18706443 -128.53125 78.22851562 C-126.84300266 77.07349415 -125.15021018 75.9251237 -123.45703125 74.77734375 C-122.07837891 73.83955078 -122.07837891 73.83955078 -120.671875 72.8828125 C-118.51953125 71.58984375 -118.51953125 71.58984375 -116.51953125 71.58984375 C-116.51953125 70.92984375 -116.51953125 70.26984375 -116.51953125 69.58984375 C-114.5703125 68.1796875 -114.5703125 68.1796875 -111.83203125 66.52734375 C-107.459108 63.82377552 -103.17369191 61.03020434 -98.95703125 58.08984375 C-98.40200928 57.7033667 -97.8469873 57.31688965 -97.27514648 56.91870117 C-94.89351268 55.25671286 -92.51671741 53.58786621 -90.140625 51.91796875 C-83.76356753 47.43739272 -77.33639929 43.03246303 -70.90087891 38.63647461 C-66.34082617 35.5214337 -61.78649298 32.39851506 -57.24121094 29.26196289 C-54.0055563 27.03073943 -50.76428197 24.80781543 -47.51953125 22.58984375 C-46.82182617 22.11289062 -46.12412109 21.6359375 -45.40527344 21.14453125 C-43.32214836 19.72477949 -41.23424669 18.31237244 -39.14453125 16.90234375 C-38.18885254 16.25036011 -38.18885254 16.25036011 -37.21386719 15.58520508 C-32.7499034 12.58984375 -32.7499034 12.58984375 -30.51953125 12.58984375 C-30.51953125 11.92984375 -30.51953125 11.26984375 -30.51953125 10.58984375 C-28.4296875 9.07421875 -28.4296875 9.07421875 -25.58203125 7.33984375 C-21.09671957 4.59208524 -16.80682146 1.70128436 -12.58984375 -1.44140625 C-8.682533 -3.26973279 -4.02534842 -1.05693506 0 0 Z " fill="#E11F2F" transform="translate(516.51953125,589.41015625)"/>
<path d="M0 0 C3.6165896 0.01371673 7.23212147 0.00685349 10.84863281 -0.02050781 C69.23748515 -0.46041563 128.41693524 10.65823885 180.75024414 37.57641602 C179.3875777 41.61447467 177.60932904 44.1200972 174.68774414 47.20141602 C171.44821229 50.69411702 168.35578932 54.23513266 165.37524414 57.95141602 C161.66060375 62.54925762 157.74840461 66.89422991 153.71582031 71.2097168 C150.23349002 74.96581325 147.09525325 78.88549881 144.09008789 83.02954102 C143.42686523 83.79524414 143.42686523 83.79524414 142.75024414 84.57641602 C142.09024414 84.57641602 141.43024414 84.57641602 140.75024414 84.57641602 C140.38092773 85.42526367 140.38092773 85.42526367 140.00415039 86.29125977 C138.5348819 88.9688986 136.77271979 90.90685214 134.68774414 93.13891602 C131.43916922 96.67809827 128.32556198 100.2720177 125.31274414 104.01391602 C121.45082739 108.78926003 117.3735019 113.31309287 113.21508789 117.83032227 C110.82317117 120.49516768 108.5576953 123.22473427 106.31274414 126.01391602 C103.09079802 130.0086746 99.74354089 133.82180253 96.25024414 137.57641602 C90.54211562 143.71572333 84.95063508 150.02201352 80.12524414 156.88891602 C79.67149414 157.44579102 79.21774414 158.00266602 78.75024414 158.57641602 C78.09024414 158.57641602 77.43024414 158.57641602 76.75024414 158.57641602 C76.5143457 159.13200195 76.27844727 159.68758789 76.03540039 160.26000977 C74.43746894 163.14017193 72.44523914 165.24010678 70.18774414 167.63891602 C65.75582733 172.41125543 61.66943872 177.32242079 57.66040039 182.45922852 C55.75024414 184.57641602 55.75024414 184.57641602 52.75024414 185.57641602 C50.95971346 184.6467174 49.1710235 183.71333167 47.39086914 182.76391602 C32.82622262 176.21413415 16.7334836 175.23858238 1.25024414 178.32641602 C0.33476807 178.50398437 -0.58070801 178.68155273 -1.52392578 178.86450195 C-7.7230277 180.12278751 -13.57816482 181.70240223 -19.24975586 184.57641602 C-20.03479492 183.84036133 -20.81983398 183.10430664 -21.62866211 182.34594727 C-28.12614679 176.18345684 -28.12614679 176.18345684 -35.18725586 170.70141602 C-38.27615204 168.5581003 -40.5962162 166.23376276 -43.24975586 163.57641602 C-45.42274599 161.61792705 -47.64568674 159.72063188 -49.87475586 157.82641602 C-50.48867188 157.30200928 -51.10258789 156.77760254 -51.73510742 156.23730469 C-56.31821412 152.33500458 -60.97473688 148.52921121 -65.65209961 144.74047852 C-68.35923797 142.48520836 -70.96299497 140.14237531 -73.56225586 137.76391602 C-76.13597723 135.41417356 -78.61899349 133.19598828 -81.56225586 131.32641602 C-84.55958282 129.37466822 -86.72208797 127.10772084 -89.24975586 124.57641602 C-91.27626338 122.80255002 -93.30966063 121.05359788 -95.37475586 119.32641602 C-95.94025146 118.85042969 -96.50574707 118.37444336 -97.08837891 117.8840332 C-101.60940303 114.08791773 -106.18162583 110.35595882 -110.76147461 106.63110352 C-113.00584077 104.77782785 -115.19812939 102.883333 -117.37475586 100.95141602 C-120.81137279 97.90291804 -124.39880079 95.10455419 -128.07397461 92.34985352 C-130.64678125 90.25280825 -132.90653538 87.92666264 -135.24975586 85.57641602 C-137.23370036 83.82159554 -139.22411984 82.09362239 -141.24975586 80.38891602 C-141.80429443 79.9191333 -142.35883301 79.44935059 -142.93017578 78.96533203 C-147.58659383 75.05477833 -152.38313397 71.34470201 -157.28686523 67.74951172 C-158.64277007 66.73699356 -159.95165988 65.66205766 -161.24975586 64.57641602 C-161.24975586 63.91641602 -161.24975586 63.25641602 -161.24975586 62.57641602 C-161.90975586 62.57641602 -162.56975586 62.57641602 -163.24975586 62.57641602 C-163.24975586 61.91641602 -163.24975586 61.25641602 -163.24975586 60.57641602 C-163.97163086 60.34954102 -164.69350586 60.12266602 -165.43725586 59.88891602 C-168.79538465 58.32178925 -170.71156106 56.24820001 -173.24975586 53.57641602 C-174.23975586 52.91641602 -175.22975586 52.25641602 -176.24975586 51.57641602 C-176.24975586 50.91641602 -176.24975586 50.25641602 -176.24975586 49.57641602 C-176.86850586 49.32891602 -177.48725586 49.08141602 -178.12475586 48.82641602 C-180.62455789 47.35594423 -181.08291608 46.16238525 -182.24975586 43.57641602 C-166.23575478 35.55511726 -150.15947085 28.48385964 -133.24975586 22.57641602 C-132.43958008 22.29072754 -131.6294043 22.00503906 -130.79467773 21.71069336 C-87.95208844 6.69043646 -45.25807029 -0.17744174 0 0 Z " fill="#E21F2F" transform="translate(405.249755859375,-0.576416015625)"/>
<path d="M0 0 C-2.0380662 51.7247145 -16.10571639 104.14181166 -40.00292969 150.06591797 C-41.05597857 152.10858527 -42.08191682 154.16312263 -43.1015625 156.22265625 C-43.45081787 156.92793457 -43.80007324 157.63321289 -44.15991211 158.35986328 C-44.81515507 159.68467145 -45.46968965 161.00983039 -46.12329102 162.33544922 C-50.38997291 170.9095883 -55.21396151 179.15727723 -60.125 187.375 C-60.64964844 188.26316406 -61.17429687 189.15132812 -61.71484375 190.06640625 C-62.22402344 190.91847656 -62.73320313 191.77054688 -63.2578125 192.6484375 C-63.7130127 193.41333496 -64.16821289 194.17823242 -64.63720703 194.96630859 C-65.9405872 196.91133848 -67.34130137 198.36276223 -69 200 C-69.90165185 201.60293662 -70.8017771 203.20676597 -71.69140625 204.81640625 C-74.44982319 209.4192572 -77.55967822 213.88203908 -81 218 C-81.66 218 -82.32 218 -83 218 C-83.1546875 218.87978516 -83.1546875 218.87978516 -83.3125 219.77734375 C-84.11432021 222.36959204 -85.15536001 223.58549001 -87 225.5625 C-89.84552674 228.69084786 -92.5449897 231.88556546 -95.1875 235.1875 C-99.6398089 240.6672648 -104.38376554 245.82315867 -109.19921875 250.98046875 C-111.49677666 253.44417079 -113.73425529 255.95114828 -115.9375 258.5 C-123.73316813 267.47061332 -132.81346936 275.11826478 -142.04296875 282.56640625 C-144.12099521 284.27659183 -146.15777057 285.99976131 -148.17578125 287.77734375 C-160.5986118 298.70522042 -173.91019733 308.3293522 -188 317 C-189.74438283 318.11318483 -191.4877692 319.22793182 -193.23046875 320.34375 C-195.15336998 321.56293518 -197.07655029 322.78168032 -199 324 C-199.93368408 324.60134766 -200.86736816 325.20269531 -201.8293457 325.82226562 C-202.71066162 326.37591797 -203.59197754 326.92957031 -204.5 327.5 C-205.69109375 328.25796875 -205.69109375 328.25796875 -206.90625 329.03125 C-209 330 -209 330 -212 329 C-212.03963867 327.93458984 -212.07927734 326.86917969 -212.12011719 325.77148438 C-212.32398909 320.3474159 -212.53573962 314.9236673 -212.75 309.5 C-212.79123993 308.45579895 -212.83247986 307.4115979 -212.87496948 306.33575439 C-213.48804394 290.98698209 -214.20331815 275.64547895 -214.98828125 260.3046875 C-215.03198978 259.44751884 -215.07569832 258.59035019 -215.12073135 257.70720673 C-215.51788467 249.919344 -215.91543624 242.13150746 -216.32873535 234.34448242 C-217.39848501 214.18695414 -218.25414974 194.04524469 -218.69374084 173.86312866 C-218.87008638 165.77604291 -219.10497686 157.70206581 -219.5625 149.625 C-219.63780678 148.1406798 -219.71220989 146.65631307 -219.78515625 145.171875 C-219.89101192 143.01829463 -220.00900356 140.86802298 -220.15576172 138.71679688 C-220.7336878 129.9205034 -220.89274982 123.70942084 -215.0078125 116.609375 C-212.61574833 113.50062235 -210.91573331 110.2452884 -209.3125 106.6875 C-209.0136792 106.02508301 -208.7148584 105.36266602 -208.40698242 104.68017578 C-206.34414451 99.72497456 -205.40843243 94.93706633 -204.65478516 89.63647461 C-202.99950267 78.08843327 -202.99950267 78.08843327 -199.98046875 74.80078125 C-197.01860593 73.4313178 -194.18084232 72.73650376 -191 72 C-188.79882139 71.24403436 -186.62823958 70.42338533 -184.45288086 69.59619141 C-182.02292452 68.67245558 -179.58158918 67.7857662 -177.13671875 66.90234375 C-171.01332286 64.66121615 -164.97217381 62.22194781 -158.93774414 59.75268555 C-155.29773081 58.2733279 -151.66898943 56.86104735 -147.9296875 55.65234375 C-140.77081523 53.3189779 -133.77477237 50.51707518 -126.75 47.8125 C-125.22167459 47.22563138 -123.6932723 46.63896294 -122.16479492 46.05249023 C-119.88533971 45.17784041 -117.60593688 44.3030574 -115.326828 43.42750549 C-109.32803527 41.12332218 -103.32127728 38.84050896 -97.3125 36.5625 C-91.64258064 34.41024489 -85.99767959 32.21037154 -80.375 29.9375 C-74.89081614 27.72353677 -69.36970082 25.64806323 -63.8125 23.625 C-56.23984268 20.86711851 -48.75249226 17.93159037 -41.27954102 14.91503906 C-34.22719462 12.07394503 -27.12770204 9.38134828 -19.99707031 6.74414062 C-17.83521642 5.93859898 -15.67902782 5.11902438 -13.5234375 4.296875 C-12.78770508 4.01730957 -12.05197266 3.73774414 -11.29394531 3.44970703 C-9.87831025 2.91143427 -8.46355196 2.37084832 -7.04980469 1.82763672 C-2.22445045 0 -2.22445045 0 0 0 Z " fill="#E11F2F" transform="translate(822,441)"/>
</svg>